<svg data-name="Layer 1" xmlns="http://www.w3.org/2000/svg"  viewBox="0 0 64 64"><path d="M32 0a32 32 0 1 0 32 32A32 32 0 0 0 32 0zm0 62a30 30 0 1 1 30-30 30 30 0 0 1-30 30zm0-52a14 14 0 0 0-14 13.86c0 5.82 2.76 8.63 5.19 11.12 2.09 2.12 3.89 4 3.89 7.5v1.8h10.58v-1.6c0-3.72 1.67-5.59 3.62-7.76C43.49 32.45 46 29.66 46 23.86A14 14 0 0 0 32 10zm7.79 23.59c-2 2.19-4 4.46-4.13 8.69h-6.58c-.07-4.23-2.3-6.5-4.46-8.7-2.37-2.43-4.62-4.72-4.62-9.72a12 12 0 0 1 24 0c0 5.03-2 7.31-4.21 9.73zm-12.71 13h10.58v2H27.08zm0 4.41h10.58v2H27.08zm8.64-21.44L37.15 31a4.52 4.52 0 0 1-3.83 2.19c-2.55 0-4.35-1.81-5-4.76h-1.53v-1.68h1.34v-.86-.83h-1.34v-1.64h1.59c.67-2.8 2.45-4.65 4.92-4.65a4.47 4.47 0 0 1 3.83 2l-1.51 1.47a2.7 2.7 0 0 0-2.34-1.39c-1.2 0-2.16.93-2.62 2.54h3.58v1.64h-3.87v1.71h3.87v1.63h-3.6c.46 1.75 1.45 2.63 2.72 2.63a2.87 2.87 0 0 0 2.36-1.44z" fill="rgba(217, 17, 5)"/></svg>