<svg width="95" height="95" viewBox="0 0 95 95" fill="none" xmlns="http://www.w3.org/2000/svg">
<path opacity="0.6" d="M60.9648 79.9852C67.1484 74.0685 70.9994 65.7339 70.9994 56.4999C70.9994 53.5671 70.611 50.7251 69.8827 48.0225C78.861 48.482 85.9994 55.9073 85.9994 64.9999C85.9994 74.3888 78.3883 81.9999 68.9994 81.9999C66.0932 81.9999 63.3574 81.2707 60.9648 79.9852Z" fill="#4353FF"/>
<path d="M70.967 55.0173C78.1471 50.9959 83.0003 43.3147 83.0003 34.5C83.0003 21.5213 72.479 11 59.5003 11C50.2954 11 42.3266 16.2923 38.4707 24C38.4806 24 38.4904 24 38.5003 24C55.9526 24 70.192 37.7563 70.967 55.0173Z" fill="#6975FF"/>
<path d="M66 56.5C66 71.6878 53.6878 84 38.5 84C23.3122 84 11 71.6878 11 56.5C11 41.3122 23.3122 29 38.5 29C53.6878 29 66 41.3122 66 56.5Z" fill="#4353FF"/>
</svg>