<svg width="95" height="95" viewBox="0 0 95 95" fill="none" xmlns="http://www.w3.org/2000/svg">
<path d="M71 13C72.1046 13 73 13.8954 73 15V31C73 32.1046 72.1046 33 71 33L27 33C25.8954 33 25 32.1046 25 31L25 15C25 13.8954 25.8954 13 27 13L71 13Z" fill="#4353FF"/>
<path opacity="0.8" d="M71 38C72.1046 38 73 38.8954 73 40V56C73 57.1046 72.1046 58 71 58L27 58C25.8954 58 25 57.1046 25 56L25 40C25 38.8954 25.8954 38 27 38L71 38Z" fill="#4353FF"/>
<path d="M22 15C22 13.8954 22.8954 13 24 13H38C39.1046 13 40 13.8954 40 15V81C40 82.1046 39.1046 83 38 83H24C22.8954 83 22 82.1046 22 81V15Z" fill="#4353FF"/>
<path opacity="0.6" d="M71 63C72.1046 63 73 63.8954 73 65V81C73 82.1046 72.1046 83 71 83L27 83C25.8954 83 25 82.1046 25 81L25 65C25 63.8954 25.8954 63 27 63L71 63Z" fill="#4353FF"/>
</svg>