<svg width="95" height="95" viewBox="0 0 95 95" fill="none" xmlns="http://www.w3.org/2000/svg">
<path d="M17 13C15.8954 13 15 13.8954 15 15V22H7C5.89543 22 5 22.8954 5 24V60C5 61.1046 5.89543 62 7 62H15V70C15 71.1046 15.8954 72 17 72H18C19.1046 72 20 71.1046 20 70V62H28C29.1046 62 30 61.1046 30 60V24C30 22.8954 29.1046 22 28 22H20V15C20 13.8954 19.1046 13 18 13H17Z" fill="#4353FF"/>
<path opacity="0.6" d="M77 22C75.8954 22 75 22.8954 75 24V32H67C65.8954 32 65 32.8954 65 34V60C65 61.1046 65.8954 62 67 62H75V70C75 71.1046 75.8954 72 77 72H78C79.1046 72 80 71.1046 80 70V62H88C89.1046 62 90 61.1046 90 60V34C90 32.8954 89.1046 32 88 32H80V24C80 22.8954 79.1046 22 78 22H77Z" fill="#4353FF"/>
<path opacity="0.8" d="M47 7C45.8954 7 45 7.89543 45 9V17H37C35.8954 17 35 17.8954 35 19V75C35 76.1046 35.8954 77 37 77H45V85C45 86.1046 45.8954 87 47 87H48C49.1046 87 50 86.1046 50 85V77H58C59.1046 77 60 76.1046 60 75V19C60 17.8954 59.1046 17 58 17H50V9C50 7.89543 49.1046 7 48 7H47Z" fill="#4353FF"/>
</svg>