<svg width="95" height="95" viewBox="0 0 95 95" fill="none" xmlns="http://www.w3.org/2000/svg">
<path d="M30 66C30 64.8954 29.1046 64 28 64H8C6.89543 64 6 64.8954 6 66V86C6 87.1046 6.89543 88 8 88H28C29.1046 88 30 87.1046 30 86V66Z" fill="#4353FF"/>
<path opacity="0.8" d="M30 37C30 35.8954 29.1046 35 28 35H8C6.89543 35 6 35.8954 6 37V57C6 58.1046 6.89543 59 8 59H28C29.1046 59 30 58.1046 30 57V37Z" fill="#4353FF"/>
<path opacity="0.6" d="M30 8C30 6.89543 29.1046 6 28 6H8C6.89543 6 6 6.89543 6 8V28C6 29.1046 6.89543 30 8 30H28C29.1046 30 30 29.1046 30 28V8Z" fill="#4353FF"/>
<path d="M59 66C59 64.8954 58.1046 64 57 64H37C35.8954 64 35 64.8954 35 66V86C35 87.1046 35.8954 88 37 88H57C58.1046 88 59 87.1046 59 86V66Z" fill="#4353FF"/>
<path opacity="0.8" d="M59 37C59 35.8954 58.1046 35 57 35H37C35.8954 35 35 35.8954 35 37V57C35 58.1046 35.8954 59 37 59H57C58.1046 59 59 58.1046 59 57V37Z" fill="#4353FF"/>
<path opacity="0.6" d="M59 8C59 6.89543 58.1046 6 57 6H37C35.8954 6 35 6.89543 35 8V28C35 29.1046 35.8954 30 37 30H57C58.1046 30 59 29.1046 59 28V8Z" fill="#4353FF"/>
<path d="M88 66C88 64.8954 87.1046 64 86 64H66C64.8954 64 64 64.8954 64 66V86C64 87.1046 64.8954 88 66 88H86C87.1046 88 88 87.1046 88 86V66Z" fill="#4353FF"/>
<path opacity="0.8" d="M88 37C88 35.8954 87.1046 35 86 35H66C64.8954 35 64 35.8954 64 37V57C64 58.1046 64.8954 59 66 59H86C87.1046 59 88 58.1046 88 57V37Z" fill="#4353FF"/>
<path opacity="0.6" d="M88 8C88 6.89543 87.1046 6 86 6H66C64.8954 6 64 6.89543 64 8V28C64 29.1046 64.8954 30 66 30H86C87.1046 30 88 29.1046 88 28V8Z" fill="#4353FF"/>
</svg>