<svg width="95" height="95" viewBox="0 0 95 95" fill="none" xmlns="http://www.w3.org/2000/svg">
<path opacity="0.8" d="M62.2399 30.2852C63.021 29.5042 64.2873 29.5042 65.0684 30.2852L76.3821 41.599C77.1631 42.38 77.1631 43.6463 76.3821 44.4274L53.0476 67.7619C52.2665 68.543 51.0002 68.543 50.2191 67.7619L37.4912 55.034L62.2399 30.2852Z" fill="#4353FF"/>
<path fill-rule="evenodd" clip-rule="evenodd" d="M86.984 46.0511C88.2129 47.28 90.3141 46.4097 90.3141 44.6717L90.3141 17.8841C90.3141 16.8067 89.4408 15.9333 88.3634 15.9334L61.5757 15.9333C59.8378 15.9333 58.9675 18.0345 60.1964 19.2634L86.984 46.0511Z" fill="#4353FF"/>
<path opacity="0.6" d="M50.0157 42.5227L37.2909 29.7979C36.5086 29.0157 35.2399 29.0171 34.4593 29.8011L0.582654 63.8283C0.209498 64.2031 0 64.7105 0 65.2394V87.8585C0 89.6418 2.15745 90.5335 3.41646 89.2705L50.0157 42.5227Z" fill="#4353FF"/>
</svg>