<svg width="95" height="95" viewBox="0 0 95 95" fill="none" xmlns="http://www.w3.org/2000/svg">
<mask id="mask0" style="mask-type:alpha" maskUnits="userSpaceOnUse" x="0" y="0" width="95" height="95">
<rect width="95" height="95" fill="#C4C4C4"/>
</mask>
<g mask="url(#mask0)">
<path opacity="0.6" d="M3.6915 80.496C2.62169 82.1917 0 81.4338 0 79.4288V56.3499C0 55.9788 0.103298 55.6149 0.298333 55.2991L25.9762 13.7191C26.7523 12.4625 28.576 12.4516 29.367 13.699L48.9238 44.5414C49.3375 45.1938 49.3385 46.0262 48.9263 46.6796L36.6139 66.1952C35.8348 67.4302 34.0377 67.441 33.2438 66.2154L28.7897 59.3395C26.0111 55.0501 19.7215 55.0878 16.9944 59.4102L3.6915 80.496Z" fill="#4353FF"/>
<path d="M94.9997 29.0752C94.9997 27.1274 92.4988 26.3288 91.3699 27.9161L72.486 54.4681C71.7069 55.7031 69.9098 55.7139 69.1159 54.4883L61.0878 42.0952C60.2939 40.8697 58.4969 40.8804 57.7177 42.1154L36.6695 75.4778C35.8904 76.7128 34.0933 76.7235 33.2994 75.498L24.5932 62.0581C23.7993 60.8326 22.0023 60.8433 21.2231 62.0783L2.3879 91.933C1.54768 93.2647 2.50473 95.0001 4.0794 95.0001H92.9997C94.1043 95.0001 94.9997 94.1047 94.9997 93.0001V29.0752Z" fill="#4353FF"/>
</g>
</svg>