<svg data-name="Layer 2" xmlns="http://www.w3.org/2000/svg"  viewBox="0 0 64 64"><path d="M32 0a32 32 0 1 0 32 32A32 32 0 0 0 32 0zm0 62a30 30 0 1 1 30-30 30 30 0 0 1-30 30zm15.31-40.06a13.57 13.57 0 0 0-9.58-9.54.76.76 0 0 1-.28-.25A11.12 11.12 0 0 0 34.57 9l-1.45-1-.25 2.14a5.61 5.61 0 0 0-.08.85c0 .48 0 1 .05 1.42a8.37 8.37 0 0 1-3 2.62l-.4.14a7.74 7.74 0 0 0-1.14.48 4.91 4.91 0 0 0-1.19 1c-.24.27-.46.55-.69.83a11.49 11.49 0 0 1-1.07 1.19c-1.22 1.08-2.57 2.2-4.25 3.5-.65.5-.85 1.83-.61 3.93.32 2.73 1.11 3.1 1.41 3.25a5.29 5.29 0 0 0 6.44-1.08 1.4 1.4 0 0 1 1.6-.44 13 13 0 0 0 2.58.62 25.47 25.47 0 0 0-2.68 3.21H18v9.5h2.41v5.7h-1.8V54h17v-4.4h11.71v-4.66c0-.57-.4-1.13-1.54-2.62a17.42 17.42 0 0 1-1.15-1.57c.5-2.14 1.15-4.39 1.91-6.69 1.17-3.52 2.18-7.7.77-12.12zM20.07 39.17v-5.54h2.51v2.28h3.18v-2.28h2.74v2.28h3.17v-2.28h2.52v5.54zm11.71 2v5.7h-9.3v-5.7zM33.58 52h-12.9v-3.17h12.9zm11-18.56c-.81 2.45-1.49 4.84-2 7.11-.16.68.28 1.28 1.56 2.93.39.52 1 1.27 1.14 1.58v2.54h-9.63v-.77h-1.8v-5.7h2.41v-9.5h-3.85A31.36 31.36 0 0 1 35 28.82c.16-.14.31-.3.51-.5l2.68-2.7-3.37.76a7.54 7.54 0 0 1-4.2-.43 3.51 3.51 0 0 0-3.75.91 3.13 3.13 0 0 1-3.93.76 9.41 9.41 0 0 1-.4-4c1.65-1.29 3-2.39 4.21-3.48a10.19 10.19 0 0 0 1.3-1.43c.21-.25.41-.5.63-.74a2.54 2.54 0 0 1 .67-.58 5.09 5.09 0 0 1 .8-.33l.46-.17c1.42-.55 4.41-3.09 4.27-4.5v-.28a13.17 13.17 0 0 1 .81 1.11 2.67 2.67 0 0 0 1.43 1.11c4.14 1.18 6.82 3.87 8.21 8.22 1.25 3.86.32 7.68-.76 10.91z" fill="rgba(217, 17, 5)"/></svg>