<?xml version="1.0" encoding="UTF-8" standalone="no"?>
<svg xmlns:dc="http://purl.org/dc/elements/1.1/" xmlns:cc="http://creativecommons.org/ns#" xmlns:rdf="http://www.w3.org/1999/02/22-rdf-syntax-ns#" xmlns:svg="http://www.w3.org/2000/svg" xmlns="http://www.w3.org/2000/svg" id="svg87" version="1.1" viewBox="0 0 1340 89" height="89" width="1340">
  <metadata id="metadata91">
    <rdf:RDF>
      <cc:Work rdf:about="">
        <dc:format>image/svg+xml</dc:format>
        <dc:type rdf:resource="http://purl.org/dc/dcmitype/StillImage"/>
        <dc:title/>
      </cc:Work>
    </rdf:RDF>
  </metadata>
  <defs id="defs21">
    <clipPath id="clip-path">
      <rect height="85" width="1337" id="rect843"/>
    </clipPath>
    <clipPath id="clip-path-3">
      <rect height="85" width="202" data-name="Rectangle 5" id="Rectangle_5"/>
    </clipPath>
    <clipPath id="clip-path-4">
      <rect height="85" width="276" data-name="Rectangle 7" id="Rectangle_7"/>
    </clipPath>
    <clipPath id="clip-path-5">
      <rect height="85" width="201" data-name="Rectangle 8" id="Rectangle_8"/>
    </clipPath>
    <clipPath id="clip-Custom_Size_1">
      <rect id="rect18" height="89" width="1340"/>
    </clipPath>
  </defs>
  <g clip-path="url(#clip-Custom_Size_1)" data-name="Custom Size – 1" id="Custom_Size_1">
    <g clip-path="url(#clip-path)" data-name="Custom Size – 1" id="Custom_Size_1-2">
      <g clip-path="url(#clip-path)" data-name="Custom Size – 1" id="Custom_Size_1-3">
        <g clip-path="url(#clip-path-3)" transform="translate(1135)" data-name="Custom Size – 1" id="Custom_Size_1-4">
          <g transform="translate(111 58)" id="BDP">
            <path fill="#707070" d="M4.3-29.971H15.941a10.452,10.452,0,0,1,3.523.559,8.319,8.319,0,0,1,2.686,1.525,6.564,6.564,0,0,1,1.719,2.213,6.234,6.234,0,0,1,.6,2.707,7.094,7.094,0,0,1-1.225,4,8.952,8.952,0,0,1-3.48,3.029,10.656,10.656,0,0,1,2.9,1.268,7.015,7.015,0,0,1,1.891,1.762,6.564,6.564,0,0,1,1.053,2.127,8.636,8.636,0,0,1,.322,2.363,7.653,7.653,0,0,1-.709,3.266,8.922,8.922,0,0,1-1.912,2.686,8.982,8.982,0,0,1-2.75,1.8A8.119,8.119,0,0,1,17.316,0H4.3ZM7.48-17.36h7.713a7.153,7.153,0,0,0,2.471-.408,5.855,5.855,0,0,0,1.912-1.117,5.135,5.135,0,0,0,1.268-1.633,4.582,4.582,0,0,0,.451-2,4.815,4.815,0,0,0-.322-1.783,3.61,3.61,0,0,0-1.01-1.439,4.533,4.533,0,0,0-1.719-.967,7.619,7.619,0,0,0-2.492-.365H7.477ZM7.48-2.9h8.486a8.723,8.723,0,0,0,2.406-.344,7.02,7.02,0,0,0,2.191-1.031,5.535,5.535,0,0,0,1.568-1.783,4.965,4.965,0,0,0,.623-2.535,4.868,4.868,0,0,0-.559-2.277,5.341,5.341,0,0,0-1.568-1.891,7.583,7.583,0,0,0-2.492-1.289,10.806,10.806,0,0,0-3.33-.473H7.477Z" id="path973"/>
            <path fill="#707070" d="M32.828-29.971H43.936a12.326,12.326,0,0,1,3.7.537,11.649,11.649,0,0,1,3.18,1.525,11.652,11.652,0,0,1,2.557,2.342,14.561,14.561,0,0,1,1.891,3.029,16.547,16.547,0,0,1,1.182,3.566,18.581,18.581,0,0,1,.408,3.932A18.19,18.19,0,0,1,55.9-9.088a14.888,14.888,0,0,1-2.664,4.77,12.3,12.3,0,0,1-4.082,3.18A11.869,11.869,0,0,1,43.936,0H32.828ZM36.008-2.9h6.66a11.585,11.585,0,0,0,4.383-.816,9.753,9.753,0,0,0,3.48-2.363,10.679,10.679,0,0,0,2.3-3.781,14.613,14.613,0,0,0,.838-5.113,15.623,15.623,0,0,0-.838-5.393,10.185,10.185,0,0,0-2.32-3.781,9.189,9.189,0,0,0-3.5-2.191,12.547,12.547,0,0,0-4.34-.73h-6.66Z" id="path975"/>
            <path fill="#707070" d="M63.766-29.971H75.109a9.137,9.137,0,0,1,3.867.773,8.585,8.585,0,0,1,2.814,1.977,8.149,8.149,0,0,1,1.719,2.729,8.262,8.262,0,0,1,.6,3.051,8.7,8.7,0,0,1-.6,3.18,7.941,7.941,0,0,1-1.74,2.75,8.485,8.485,0,0,1-2.814,1.934,9.543,9.543,0,0,1-3.846.73H66.945V0h-3.18Zm3.18,14.309H75.11a5.56,5.56,0,0,0,2.213-.451,5.84,5.84,0,0,0,1.848-1.246,5.963,5.963,0,0,0,1.289-1.848,5.5,5.5,0,0,0,.473-2.277A5.363,5.363,0,0,0,80.48-23.7a5.153,5.153,0,0,0-1.225-1.783,5.331,5.331,0,0,0-1.848-1.16,6.026,6.026,0,0,0-2.3-.43H66.945Z" id="path977"/>
          </g>
          <g data-name="Group 1" id="Group_1">
            <g data-name="Group 2" id="Group_2">
              <path fill="#7c7c7c" d="M85,42.5A42.5,42.5,0,1,1,42.5,0,42.5,42.5,0,0,1,85,42.5" id="Ellipse_1"/>
              <path fill="#c9c9c9" transform="translate(32 14)" d="M10,0,20,19H0Z" data-name="Polygon 8" id="Polygon_8"/>
              <path fill="#fff" transform="translate(32 51)" d="M10,0,20,19H0Z" data-name="Polygon 9" id="Polygon_9"/>
              <path fill="#d1d1d1" transform="matrix(0.515, -0.857, 0.857, 0.515, 36.463, 60.201)" d="M10.753,0,21.506,18.434H0Z" data-name="Polygon 10" id="Polygon_10"/>
              <path fill="#d1d1d1" transform="translate(16.061 60.435) rotate(-60)" d="M10.753,0,21.506,18.434H0Z" data-name="Polygon 11" id="Polygon_11"/>
              <path fill="#fff" transform="translate(52.776 51.04) rotate(180)" d="M10.241,0,20.482,18.434H0Z" data-name="Polygon 12" id="Polygon_12"/>
              <path fill="#afafaf" transform="matrix(-0.515, 0.857, -0.857, -0.515, 48.059, 42.044)" d="M10.753,0,21.506,18.434H0Z" data-name="Polygon 13" id="Polygon_13"/>
              <path fill="#afafaf" transform="translate(68.461 41.81) rotate(120)" d="M10.753,0,21.506,18.434H0Z" data-name="Polygon 14" id="Polygon_14"/>
            </g>
          </g>
        </g>
        <g clip-path="url(#clip-path-4)" data-name="Custom Size – 1" id="Custom_Size_1-5">
          <g transform="translate(-20.7 -229.4)" id="chainlink-ltd-vector-logo">
            <path fill="#7c7c7c" transform="translate(-111.17 -30.733)" d="M226.646,302.125A14.985,14.985,0,0,1,241.068,286.6h.6c7.625,0,12.126,4.455,13.458,9.691l-4.777,1.608a8.267,8.267,0,0,0-8.681-6.522c-4.915,0-9.875,3.583-9.875,10.84s4.823,10.7,9.921,10.7a9.032,9.032,0,0,0,8.911-6.568l4.639,1.516a13.406,13.406,0,0,1-13.6,9.875A14.783,14.783,0,0,1,226.6,303.227a8.845,8.845,0,0,1,.046-1.1" data-name="Path 19" id="Path_19"/>
            <path fill="#7c7c7c" transform="translate(-149.89 -30.628)" d="M303.306,316.944H298.3V286.4h5.007v11.988a7.238,7.238,0,0,1,5.833-2.572c5.052,0,7.533,3.629,7.533,8.13v13H311.8V304.772a3.981,3.981,0,0,0-3.353-4.5h0a2.781,2.781,0,0,0-.873,0,4.293,4.293,0,0,0-4.272,4.272v12.4Z" data-name="Path 20" id="Path_20"/>
            <path fill="#7c7c7c" transform="translate(-176.941 -41.572)" d="M354.6,316.162l5.282-.827c1.194-.138,1.516-.781,1.516-1.47,0-1.745-1.148-3.123-3.9-3.123a3.929,3.929,0,0,0-4.226,3.491v.184l-4.455-1.01c.367-3.537,3.583-6.706,8.635-6.706,6.339,0,8.727,3.583,8.727,7.762v10.2a16.081,16.081,0,0,0,.276,3.307H361.9a10.064,10.064,0,0,1-.184-2.618,7.28,7.28,0,0,1-6.339,3.261,6.5,6.5,0,0,1-6.982-5.833v-.322c-.046-3.812,2.664-5.787,6.2-6.293m6.752,3.307v-.919l-5.374.781a2.867,2.867,0,0,0-2.756,2.8,2.658,2.658,0,0,0,2.756,2.664h.23a4.665,4.665,0,0,0,5.19-4.134v-.092a2.245,2.245,0,0,0-.046-1.1Z" data-name="Path 21" id="Path_21"/>
            <path fill="#7c7c7c" transform="translate(-203.951 -30.143)" d="M401.522,285.5a3.193,3.193,0,1,1-3.123,3.215,3.119,3.119,0,0,1,3.123-3.215m-2.388,31.05V295.926h4.915v20.531Z" data-name="Path 22" id="Path_22"/>
            <path fill="#7c7c7c" transform="translate(-217.87 -41.681)" d="M429.115,328.027H424.2V307.5h4.777v2.756a6.948,6.948,0,0,1,6.063-3.353c5.006,0,7.395,3.629,7.395,8.13v13h-4.869V315.855c0-2.526-1.148-4.547-4.226-4.547a4.352,4.352,0,0,0-4.318,4.363v.5Z" data-name="Path 23" id="Path_23"/>
            <path fill="#7c7c7c" transform="translate(230.604 255.772)" d="M0,0H4.869V30.544H0Z" id="Rectangle_2"/>
            <path fill="#7c7c7c" transform="translate(-258.706 -30.143)" d="M502.969,285.5a3.192,3.192,0,1,1-3.169,3.215v-.046a3.146,3.146,0,0,1,3.169-3.169m-2.434,31.05V295.926H505.4v20.531Z" data-name="Path 24" id="Path_24"/>
            <path fill="#7c7c7c" transform="translate(-272.689 -41.681)" d="M530.669,328.027H525.8V307.5h4.777v2.756a6.948,6.948,0,0,1,6.063-3.353c5.007,0,7.441,3.629,7.441,8.13v13h-4.869V315.855a3.981,3.981,0,0,0-3.353-4.5h0a2.781,2.781,0,0,0-.873,0,4.245,4.245,0,0,0-4.272,4.318v.505Z" data-name="Path 25" id="Path_25"/>
            <path fill="#7c7c7c" transform="translate(-301.129 -30.628)" d="M589.194,305.048l8.635,11.9h-6.017l-6.017-8.5-2.526,2.664v5.833H578.4V286.4h4.869v18.281l7.9-8.268h6.476Z" data-name="Path 26" id="Path_26"/>
            <path fill="#7c7c7c" d="M57.353,247.4l21.174,12.229v24.5L57.445,296.4,36.271,284.31v-24.6Zm0-18-7.762,4.522L28.462,246.243,20.7,250.765v42.5l7.762,4.476,21.174,12.182L57.4,314.4l7.762-4.522,21.082-12.321,7.762-4.522V250.489l-7.762-4.476L65.07,233.784Z" data-name="Path 27" id="Path_27"/>
          </g>
        </g>
        <g clip-path="url(#clip-path-5)" transform="translate(876)" data-name="Custom Size – 1" id="Custom_Size_1-6">
          <g transform="translate(-8.19 -5.811)" id="LP_logo_26">
            <g transform="translate(98.061 37.66)" id="Group">
              <path fill-rule="evenodd" fill="#7c7c7c" transform="translate(6.279 -0.572)" d="M9,20.944h3.4V6.392H9ZM9,4.182h3.4V.572H9Z" id="Fill-2"/>
              <path fill-rule="evenodd" fill="#7c7c7c" transform="translate(0 -0.572)" d="M0,.572H3.655V17.625h8.229v3.318H0Z" id="Fill-3"/>
              <path fill-rule="evenodd" fill="#7c7c7c" transform="translate(9.94 1.977)" d="M25.457,5.994a7.578,7.578,0,0,1,1.37,4.765v7.958H23.291V11.044A5.2,5.2,0,0,0,22.62,8.09a2.445,2.445,0,0,0-2.153-.954,3.381,3.381,0,0,0-2.684,1.226V18.718H14.248V4.454h3.309l.056,1a6.662,6.662,0,0,1,3.823-1.226A4.777,4.777,0,0,1,25.458,6" id="Fill-4"/>
              <path fill-rule="evenodd" fill="#7c7c7c" transform="translate(16.977 -0.273)" d="M24.336,1h3.538V12.554L32.295,6.7h4L31.1,13.552l5.3,7.417H32.408l-4.534-6.334v6.334H24.336Z" id="Fill-6"/>
              <path fill-rule="evenodd" fill="#7c7c7c" transform="translate(23.382 -0.274)" d="M40.276,10.984a4.03,4.03,0,0,0,2.811-.856A3.4,3.4,0,0,0,44.013,7.5a3.317,3.317,0,0,0-.942-2.609,4.213,4.213,0,0,0-2.881-.844H37.166V10.98ZM33.516,1h7.1q7.1,0,7.1,6.446a6.369,6.369,0,0,1-1.8,4.964A7.53,7.53,0,0,1,40.7,14.036H37.166v6.933h-3.65Z" id="Fill-8"/>
              <path fill-rule="evenodd" fill="#7c7c7c" transform="translate(29.949 1.953)" d="M52.986,14.891a5.026,5.026,0,0,0,.985-3.253,5.138,5.138,0,0,0-.985-3.3,3.612,3.612,0,0,0-5.449,0,5.157,5.157,0,0,0-.983,3.3,5.045,5.045,0,0,0,.983,3.253,3.638,3.638,0,0,0,5.449,0m-6.631,3.137a6.712,6.712,0,0,1-2.54-2.679,7.848,7.848,0,0,1-.884-3.711A8.009,8.009,0,0,1,43.815,7.9a6.651,6.651,0,0,1,2.54-2.709,8.121,8.121,0,0,1,7.814,0A6.662,6.662,0,0,1,56.709,7.9a8.01,8.01,0,0,1,.886,3.736,7.849,7.849,0,0,1-.886,3.711,6.724,6.724,0,0,1-2.54,2.679,8.121,8.121,0,0,1-7.814,0" id="Fill-10"/>
              <path fill-rule="evenodd" fill="#7c7c7c" transform="translate(36.918 1.953)" d="M62.974,14.891a5.035,5.035,0,0,0,.983-3.253,5.147,5.147,0,0,0-.983-3.3,3.612,3.612,0,0,0-5.449,0,5.158,5.158,0,0,0-.985,3.3,5.045,5.045,0,0,0,.985,3.253,3.638,3.638,0,0,0,5.449,0m-6.631,3.137A6.728,6.728,0,0,1,53.8,15.35a7.846,7.846,0,0,1-.883-3.711A8.008,8.008,0,0,1,53.8,7.9a6.666,6.666,0,0,1,2.541-2.709,8.121,8.121,0,0,1,7.814,0A6.658,6.658,0,0,1,66.7,7.9a8.01,8.01,0,0,1,.886,3.736A7.849,7.849,0,0,1,66.7,15.35a6.72,6.72,0,0,1-2.538,2.679,8.121,8.121,0,0,1-7.814,0" id="Fill-12"/>
              <path fill-rule="evenodd" fill="#7c7c7c" transform="translate(44.225 -0.274)" d="M63.394,20.98H66.93V1H63.394Z" id="Fill-14"/>
            </g>
            <g transform="translate(7.875 5.811)" id="Group-22">
              <g id="Group-2">
                <path fill-rule="evenodd" fill="#7c7c7c" transform="translate(19.346 5.566)" d="M41.127,7.978,36.239,10.81v3.745l4.888-2.833,10.142,5.834V29.227L27.731,42.769V48.3l3.253,1.873v-5.53L54.522,31.1V15.684Z" id="Fill-16"/>
                <path fill-rule="evenodd" fill="#7c7c7c" transform="translate(7.649 18.715)" d="M39.427,56.7,29.284,62.539,19.142,56.7V32.5a5.006,5.006,0,0,0-2.509-4.323l-2.385-1.348L10.965,28.72l4.05,2.27a1.747,1.747,0,0,1,.873,1.509v26.08l13.4,7.707,13.4-7.707v-5.69l-3.255-1.873Z" id="Fill-17"/>
                <path fill-rule="evenodd" fill="#7c7c7c" transform="translate(0 12.008)" d="M3.253,49.869V38.2l10.138-5.834H13.4L26.791,24.65V19.086l-3.253-1.873v5.571L0,36.327V51.743L13.4,59.45l4.931-2.887V52.819L13.4,55.7Z" id="Fill-18"/>
                <path fill-rule="evenodd" fill="#7c7c7c" transform="translate(9.673)" d="M17.119,9.579,27.261,3.744,37.4,9.579V36.665l4.93,2.757,3.27-1.883-4.946-2.747V7.706L27.261,0l-13.4,7.706v5.587l3.253,1.873Z" id="Fill-19"/>
                <path fill-rule="evenodd" fill="#7c7c7c" transform="translate(0 5.565)" d="M8.107,31.978,3.254,29.227V17.557l10.141-5.834,23.54,13.542,4.888-2.9V18.621l-4.888,2.9L13.394,7.977,0,15.685V31.1l4.838,2.759Z" id="Fill-20"/>
                <path fill-rule="evenodd" fill="#7c7c7c" transform="translate(13.187 18.716)" d="M60.681,35.383h0v-5.74l-4.8-2.815-3.289,1.893,4.838,2.8v11.64L47.285,49,23.747,35.454,18.9,38.291v3.745L23.747,39.2,47.285,52.742,60.6,45.083l.084-.025V35.383Z" id="Fill-21"/>
              </g>
            </g>
          </g>
        </g>
      </g>
    </g>
    <g transform="translate(334 -451.026)" id="Long-line_colour">
      <path fill-rule="evenodd" fill="#7c7c7c" transform="translate(-283.679 -27.689)" d="M525.037,520.536a4.42,4.42,0,0,0,2.335-.653,5.025,5.025,0,0,0,1.726-1.732,4.544,4.544,0,0,0,.65-2.385,4.163,4.163,0,0,0-.65-2.283,4.871,4.871,0,0,0-1.726-1.632,4.651,4.651,0,0,0-2.335-.611h-8.651v9.3ZM525.565,507a8.469,8.469,0,0,1,4.346,1.162A8.96,8.96,0,0,1,533.1,511.3a8.454,8.454,0,0,1,1.2,4.465,8.617,8.617,0,0,1-1.239,4.566,9.3,9.3,0,0,1-3.29,3.242,8.792,8.792,0,0,1-4.528,1.2h-8.853V535.54H512V507Z" id="Fill-1"/>
      <path fill-rule="evenodd" fill="#7c7c7c" transform="translate(-321.909 -27.689)" d="M594.061,511.234h-8.64v9.405h9.336a4.8,4.8,0,0,0,2.518-.652,4.562,4.562,0,0,0,1.679-1.73,4.792,4.792,0,0,0,.594-2.342,4.174,4.174,0,0,0-.737-2.443,4.938,4.938,0,0,0-1.986-1.649,6.391,6.391,0,0,0-2.764-.59m10.073,4.722a8.233,8.233,0,0,1-1.679,5.029,9.574,9.574,0,0,1-4.3,3.277l7.37,11.277-5.447-.041-6.838-10.627h-7.821V535.5H581V507h14a9.227,9.227,0,0,1,4.422,1.12,9.117,9.117,0,0,1,3.4,3.155,8.465,8.465,0,0,1,1.31,4.682" data-name="Fill-3" id="Fill-3-2"/>
      <path fill-rule="evenodd" fill="#7c7c7c" transform="translate(-360.139 -27.134)" d="M676.257,520.715a10.252,10.252,0,0,0-1.4-5.334,10.1,10.1,0,0,0-3.856-3.721,12.348,12.348,0,0,0-11.3,0,10,10,0,0,0-3.815,3.721,11.037,11.037,0,0,0,0,10.668,9.983,9.983,0,0,0,3.815,3.72,12.343,12.343,0,0,0,11.3,0,10.049,10.049,0,0,0,3.856-3.74,10.285,10.285,0,0,0,1.4-5.315m4.513,0a14.738,14.738,0,0,1-1.128,5.785,14.021,14.021,0,0,1-3.2,4.681,14.9,14.9,0,0,1-4.882,3.127,17.576,17.576,0,0,1-12.369,0,14.619,14.619,0,0,1-4.882-3.127,14.149,14.149,0,0,1-3.18-4.681,15.391,15.391,0,0,1,0-11.568,14.159,14.159,0,0,1,3.18-4.681,14.653,14.653,0,0,1,4.882-3.127,17.576,17.576,0,0,1,12.369,0,14.938,14.938,0,0,1,4.882,3.127,14.031,14.031,0,0,1,3.2,4.681,14.743,14.743,0,0,1,1.128,5.784" id="Fill-5"/>
      <path fill-rule="evenodd" fill="#7c7c7c" transform="translate(-403.356 -27.689)" d="M737.065,535.54v-24.3H728V507h22.743v4.24h-9.308v24.3Z" id="Fill-7"/>
      <path fill-rule="evenodd" fill="#7c7c7c" transform="translate(-436.599 -27.134)" d="M814.257,520.715a10.254,10.254,0,0,0-1.4-5.334,10.1,10.1,0,0,0-3.856-3.721,12.349,12.349,0,0,0-11.3,0,10,10,0,0,0-3.815,3.721,11.033,11.033,0,0,0,0,10.668,9.984,9.984,0,0,0,3.815,3.72,12.344,12.344,0,0,0,11.3,0,10.051,10.051,0,0,0,3.856-3.74,10.288,10.288,0,0,0,1.4-5.315m4.513,0a14.74,14.74,0,0,1-1.128,5.785,14.015,14.015,0,0,1-3.2,4.681,14.91,14.91,0,0,1-4.882,3.127,17.577,17.577,0,0,1-12.369,0,14.62,14.62,0,0,1-4.882-3.127,14.156,14.156,0,0,1-3.18-4.681,15.4,15.4,0,0,1,0-11.568,14.167,14.167,0,0,1,3.18-4.681,14.654,14.654,0,0,1,4.882-3.127,17.577,17.577,0,0,1,12.369,0,14.946,14.946,0,0,1,4.882,3.127,14.025,14.025,0,0,1,3.2,4.681,14.746,14.746,0,0,1,1.128,5.784" id="Fill-9"/>
      <path fill-rule="evenodd" fill="#7c7c7c" transform="translate(-482.586 -27.134)" d="M896.9,531.2a12.393,12.393,0,0,1-2.659,1.952,18.418,18.418,0,0,1-3.878,1.624,16.188,16.188,0,0,1-4.669.657,15.7,15.7,0,0,1-5.766-1.048,14.121,14.121,0,0,1-4.689-2.981,13.409,13.409,0,0,1-3.126-4.665,15.985,15.985,0,0,1-1.116-6.1,14.139,14.139,0,0,1,4.446-10.481,15.294,15.294,0,0,1,4.771-3.063A14.976,14.976,0,0,1,885.9,506a15.229,15.229,0,0,1,4.73.72,16.936,16.936,0,0,1,3.939,1.829,11.77,11.77,0,0,1,2.74,2.343l-2.8,3.371a16.563,16.563,0,0,0-3.959-2.775,10.853,10.853,0,0,0-9.765.144,10.054,10.054,0,0,0-3.837,3.535,9.882,9.882,0,0,0-1.482,5.466,10.218,10.218,0,0,0,1.522,5.755,9.691,9.691,0,0,0,3.979,3.473,12.144,12.144,0,0,0,5.3,1.172,10.438,10.438,0,0,0,4.994-1.13,17.958,17.958,0,0,0,3.491-2.364Z" id="Fill-11"/>
      <path fill-rule="evenodd" fill="#7c7c7c" transform="translate(-523.033 -27.134)" d="M970.257,520.715a10.258,10.258,0,0,0-1.4-5.334A10.107,10.107,0,0,0,965,511.661a12.35,12.35,0,0,0-11.3,0,10,10,0,0,0-3.815,3.721,11.042,11.042,0,0,0,0,10.668,9.987,9.987,0,0,0,3.815,3.72,12.344,12.344,0,0,0,11.3,0,10.053,10.053,0,0,0,3.857-3.74,10.291,10.291,0,0,0,1.4-5.315m4.513,0a14.758,14.758,0,0,1-1.128,5.785,14.022,14.022,0,0,1-3.2,4.681,14.9,14.9,0,0,1-4.881,3.127,17.578,17.578,0,0,1-12.37,0,14.619,14.619,0,0,1-4.882-3.127,14.14,14.14,0,0,1-3.18-4.681,15.4,15.4,0,0,1,0-11.568,14.15,14.15,0,0,1,3.18-4.681,14.653,14.653,0,0,1,4.882-3.127,17.578,17.578,0,0,1,12.37,0,14.932,14.932,0,0,1,4.881,3.127,14.032,14.032,0,0,1,3.2,4.681,14.763,14.763,0,0,1,1.128,5.784" id="Fill-13"/>
      <path fill-rule="evenodd" fill="#7c7c7c" transform="translate(-571.79 -27.689)" d="M1052.067,531.3v4.24H1032V507h4.405v24.3Z" id="Fill-15"/>
      <path fill-rule="evenodd" fill="#7c7c7c" transform="translate(-98.623 -27.689)" d="M196.01,530.26a7.6,7.6,0,0,1-4.169,1.04h-9.471v-8.317h9.269a10.64,10.64,0,0,1,2.752.367,5.192,5.192,0,0,1,2.307,1.264,3.237,3.237,0,0,1,.931,2.446,3.537,3.537,0,0,1-1.619,3.2Zm-13.64-19.02h8.581a7.317,7.317,0,0,1,3.683.856,3.026,3.026,0,0,1,1.5,2.855,3.173,3.173,0,0,1-1.417,2.772,5.863,5.863,0,0,1-3.278,1.019h-9.066Zm16.938,10.112a9.92,9.92,0,0,0-2.691-1.386,6.389,6.389,0,0,0,2.954-2.344,6.109,6.109,0,0,0,1.011-3.445,6.374,6.374,0,0,0-2.347-5.342Q195.889,507,191.275,507H178v28.54h13.922a16.646,16.646,0,0,0,3.562-.387,10.212,10.212,0,0,0,3.279-1.325,6.986,6.986,0,0,0,2.408-2.569,8.369,8.369,0,0,0,.91-4.118,7.214,7.214,0,0,0-.769-3.465,6.833,6.833,0,0,0-2-2.324Z" data-name="Fill-17" id="Fill-17-2"/>
      <path fill-rule="evenodd" fill="#7c7c7c" transform="translate(-135.191 -27.689)" d="M253.269,524.369l2.927-6.85q.569-1.345,1.1-2.813t1.1-3.017q.527,1.509,1.056,2.915t1.058,2.752l3.008,7.013ZM256.156,507,244,535.54h4.512l2.967-6.932H265.3l2.927,6.932h4.756L260.912,507Z" data-name="Fill-19" id="Fill-19-2"/>
      <path fill-rule="evenodd" fill="#7c7c7c" transform="translate(-180.624 -27.689)" d="M348.385,511.24v17.575L330.089,507H326v28.54h4.372V514.331l18.215,21.209h4.17V507h-4.372Z" data-name="Fill-21" id="Fill-21-2"/>
      <path fill-rule="evenodd" fill="#7c7c7c" transform="translate(-226.611 -27.689)" d="M430.182,526.305a8.22,8.22,0,0,1-3.244,3.629A10.771,10.771,0,0,1,421.2,531.3h-7.824V511.24H421.2a10.675,10.675,0,0,1,5.717,1.387,8.282,8.282,0,0,1,3.263,3.669,12.63,12.63,0,0,1,0,10.009m4.661-10.52a13.044,13.044,0,0,0-2.736-4.567,12.724,12.724,0,0,0-4.5-3.1A15.956,15.956,0,0,0,421.4,507H409v28.54H421.4a15.028,15.028,0,0,0,7.905-1.936,12.492,12.492,0,0,0,4.825-5.178,15.775,15.775,0,0,0,1.621-7.156,16.381,16.381,0,0,0-.913-5.484" id="Fill-23"/>
      <g transform="translate(0 457.026)" id="Group-27">
        <path fill-rule="evenodd" fill="#7c7c7c" transform="translate(0 -0.026)" d="M50.379,49.67A11.063,11.063,0,0,1,39.344,60.736H18.186l21.988-22.05a11.034,11.034,0,0,1,10.2,10.983ZM15.066,37.688V12.043H39.344a10.963,10.963,0,0,1,1.227.068ZM54.791,23.111a15.5,15.5,0,0,0-6.42-12.565L58.86.026,52.585.062,44.252,8.419a15.342,15.342,0,0,0-4.908-.8H10.654V48.37L45.2,13.73a11.071,11.071,0,0,1-5.851,20.447H38.43L0,72.717h6.24l7.534-7.556h25.57A15.484,15.484,0,0,0,47.273,36.4a15.506,15.506,0,0,0,7.518-13.288Z" id="Fill-25"/>
      </g>
    </g>
  </g>
</svg>